<svg width="610" height="595" viewBox="0 0 610 595" fill="none" xmlns="http://www.w3.org/2000/svg">
<path d="M18.7378 279.053C132.965 -18.2537 310.724 -41.3162 419.073 41.4479C530.375 126.488 589.978 328.808 500.855 468.411C344.171 713.814 -95.5155 576.359 18.7121 279.053H18.7378Z" fill="#F5F5F5"/>
<path d="M510.076 374.043C510.076 374.043 466.129 363.313 448.945 349.612C441.697 343.849 440.187 339.854 440.187 339.854C443.849 330.66 452.607 323.515 458.523 321.979C460.93 320.365 463.466 320.621 465.617 321.902L484.722 333.247L518.066 358.165L510.101 374.043H510.076Z" fill="#CBCBCB"/>
<path d="M510.076 374.043C510.076 374.043 466.129 363.313 448.945 349.612C441.697 343.849 440.187 339.854 440.187 339.854C443.849 330.66 452.607 323.515 458.523 321.979C460.93 320.365 463.466 320.621 465.617 321.902L484.722 333.247L518.066 358.165L510.101 374.043H510.076Z" fill="#FDE6E1"/>
<path d="M385.69 228.068C385.69 228.068 367.584 198.412 374.473 175.85L393.859 208.938C393.859 208.938 403.233 226.813 385.69 228.068Z" fill="#0580A3"/>
<path d="M398.981 156.284C398.981 156.284 427.152 152.11 434.809 175.773C441.161 195.39 443.107 198.053 457.653 220.155C484.159 260.413 434.886 276.88 434.886 276.88L426 278.801C389.813 263.87 426.128 270.145 406.818 256.751L385.408 242.794L398.981 156.284V156.284Z" fill="#0580A3"/>
<path d="M437.242 254.241C437.242 254.241 429.815 235.546 387.559 227.094C366.482 222.869 392.553 283.052 392.553 283.052L437.267 254.241H437.242Z" fill="#CBCBCB"/>
<path d="M437.242 254.241C437.242 254.241 429.815 235.546 387.559 227.094C366.482 222.869 392.553 283.052 392.553 283.052L437.267 254.241H437.242Z" fill="#FDE6E1"/>
<path d="M356.237 485.523C358.696 485.523 361.154 484.959 363.408 483.807L373.933 478.557L370.655 472.027L360.13 477.277C358.004 478.327 355.622 478.506 353.369 477.712C351.115 476.944 349.322 475.33 348.324 473.205L333.086 440.45L326.479 443.6L341.716 476.355C343.586 480.273 346.889 483.218 351.013 484.652C352.728 485.241 354.496 485.548 356.263 485.548L356.237 485.523Z" fill="#0580A3"/>
<path d="M468.511 485.523C470.969 485.523 473.428 484.959 475.682 483.807L486.207 478.557L482.929 472.026L472.404 477.276C470.278 478.326 467.871 478.506 465.643 477.712C463.389 476.944 461.596 475.33 460.597 473.205L441.774 433.663L435.167 436.813L453.99 476.355C455.86 480.273 459.163 483.218 463.261 484.652C464.977 485.241 466.744 485.548 468.511 485.548V485.523Z" fill="#0580A3"/>
<path d="M391.503 470.439C391.503 416.377 435.475 372.405 489.537 372.405C543.599 372.405 587.571 416.377 587.571 470.439C587.571 524.501 543.599 568.473 489.537 568.473C435.475 568.473 391.503 524.501 391.503 470.439ZM398.802 470.439C398.802 520.455 439.496 561.149 489.511 561.149C539.527 561.149 580.221 520.455 580.221 470.439C580.221 420.423 539.527 379.729 489.511 379.729C439.496 379.729 398.802 420.423 398.802 470.439V470.439Z" fill="#0580A3"/>
<path d="M479.907 470.439C479.907 465.138 484.21 460.81 489.537 460.81C494.863 460.81 499.166 465.112 499.166 470.439C499.166 475.766 494.863 480.068 489.537 480.068C484.235 480.068 479.907 475.766 479.907 470.439ZM487.206 470.439C487.206 471.719 488.23 472.744 489.511 472.744C490.791 472.744 491.816 471.719 491.816 470.439C491.816 469.158 490.791 468.134 489.511 468.134C488.23 468.134 487.206 469.184 487.206 470.439Z" fill="#1E2933"/>
<path d="M569.977 514.308C569.977 514.308 570.899 528.265 575.816 534.462C580.759 540.686 553.664 541.3 553.664 541.3C553.664 541.3 553.766 531.773 549.412 520.608C545.059 509.467 569.951 514.282 569.951 514.282L569.977 514.308Z" fill="#EE947C"/>
<path d="M517.094 514.308C517.094 514.308 518.016 528.265 522.933 534.462C527.876 540.686 500.781 541.3 500.781 541.3C500.781 541.3 500.883 531.773 496.53 520.608C492.176 509.467 517.069 514.282 517.069 514.282L517.094 514.308Z" fill="#EE947C"/>
<path d="M393.5 375.964L386.201 376.45L391.989 464.753L399.288 464.266L393.5 375.964Z" fill="#0580A3"/>
<path d="M379.671 330.943H349.657C340.616 330.943 333.036 337.755 332.088 346.744L322.895 436.353L413.297 438.248L379.697 330.943H379.671Z" fill="#0580A3"/>
<path d="M405.075 266.278C405.075 266.278 427.945 332.735 448.279 348.972C468.613 365.208 470.969 336.141 470.969 336.141L437.241 254.241L405.075 266.278V266.278Z" fill="#CBCBCB"/>
<path d="M405.075 266.278C405.075 266.278 427.945 332.735 448.279 348.972C468.613 365.208 470.969 336.141 470.969 336.141L437.241 254.241L405.075 266.278V266.278Z" fill="#FDE6E1"/>
<path d="M363.305 233.625L385.688 226.173C385.688 226.173 392.397 248.863 363.305 233.625Z" fill="#CBCBCB"/>
<path d="M363.305 233.625L385.688 226.173C385.688 226.173 392.397 248.863 363.305 233.625Z" fill="#FDE6E1"/>
<path d="M394.397 209.399C394.397 209.399 395.882 209.014 397.931 208.118C401.516 206.53 402.387 201.869 399.698 199.027C398.674 197.925 397.726 196.645 397.035 195.236C397.035 195.236 387.2 198.822 394.422 209.424L394.397 209.399Z" fill="#993220"/>
<path d="M387.506 442.729C387.506 442.729 329.551 430.129 357.261 374.172L367.479 353.812L435.114 351.763L458.342 395.428L387.506 442.703V442.729Z" fill="#B0DFDC"/>
<path d="M391.989 367.872H528.642C542.087 369.562 558.35 385.492 552.716 413.611L389.197 436.839L392.014 367.872H391.989Z" fill="#B0DFDC"/>
<path d="M553.817 397.374L578.633 528.829L549.617 530.929C549.617 530.929 507.617 467.084 509.307 419.219C510.998 371.329 553.817 397.374 553.817 397.374V397.374Z" fill="#B0DFDC"/>
<path d="M501.19 397.374L526.006 528.829L496.99 530.929C496.99 530.929 454.99 467.084 456.681 419.219C458.345 371.329 501.19 397.374 501.19 397.374V397.374Z" fill="#B0DFDC"/>
<path d="M608.007 546.294L554.047 554.233C554.047 554.233 551.819 553.67 550.897 549.854C549.975 546.038 550.769 530.314 550.769 530.314C550.769 530.314 554.149 530.391 557.146 533.874C560.168 537.356 565.11 530.135 565.751 526.677C566.416 523.22 569.976 522.631 569.976 522.631L597.532 534.053L601.374 534.283C604.114 534.437 606.726 535.641 608.416 537.792C610.03 539.815 611.157 543.375 607.955 546.32L608.007 546.294Z" fill="#FDE6E1"/>
<path d="M278 470.439C278 416.377 321.972 372.405 376.034 372.405C430.096 372.405 474.068 416.377 474.068 470.439C474.068 524.501 430.096 568.473 376.034 568.473C321.972 568.473 278 524.501 278 470.439V470.439ZM285.299 470.439C285.299 520.455 325.993 561.149 376.009 561.149C426.024 561.149 466.718 520.455 466.718 470.439C466.718 420.423 426.024 379.729 376.009 379.729C325.993 379.729 285.299 420.423 285.299 470.439V470.439Z" fill="#0580A3"/>
<path d="M450.201 427.901L322.792 436.275C323.279 443.676 329.681 449.285 337.082 448.798L437.472 442.191C444.029 441.755 449.304 436.659 449.97 430.103L450.201 427.875V427.901Z" fill="#0580A3"/>
<path d="M381.54 472.719C382.82 469.671 381.36 466.189 378.339 464.908C375.291 463.653 371.808 465.087 370.528 468.135C369.247 471.182 370.707 474.665 373.729 475.946C376.776 477.201 380.259 475.767 381.54 472.719Z" fill="#0580A3"/>
<path d="M366.403 470.439C366.403 465.138 370.706 460.81 376.033 460.81C381.359 460.81 385.662 465.112 385.662 470.439C385.662 475.766 381.359 480.068 376.033 480.068C370.731 480.068 366.403 475.766 366.403 470.439ZM373.702 470.439C373.702 471.719 374.726 472.744 376.007 472.744C377.287 472.744 378.312 471.719 378.312 470.439C378.312 469.158 377.287 468.134 376.007 468.134C374.726 468.134 373.702 469.184 373.702 470.439Z" fill="#0580A3"/>
<path d="M557.173 552.493L503.213 560.381C503.213 560.381 500.985 559.817 500.063 556.001C499.141 552.186 499.961 536.461 499.961 536.461C499.961 536.461 503.341 536.538 506.337 540.021C509.359 543.504 514.302 536.282 514.968 532.825C515.634 529.367 519.219 528.778 519.219 528.778L546.75 540.251L550.591 540.482C553.331 540.661 555.944 541.839 557.634 543.99C559.247 546.039 560.374 549.573 557.173 552.519V552.493Z" fill="#FDE6E1"/>
<path d="M534.713 557.767C536.429 557.767 538.17 557.614 539.937 557.332L591.029 548.804L589.825 541.582L538.734 550.11C526.185 552.236 514.276 544.143 511.587 531.722L494.403 450.36C491.842 438.477 480.087 430.769 468.179 433.202L437.575 442.242L391.913 445.084L391.99 452.383L438.344 449.515L469.639 440.321C477.629 438.708 485.542 443.855 487.258 451.845L504.442 533.208C507.567 547.754 520.346 557.742 534.713 557.742V557.767Z" fill="#0580A3"/>
<path d="M472.814 466.777H383.41V474.076H472.814V466.777Z" fill="#0580A3"/>
<path d="M398.034 198.462C398.034 198.462 399.365 199.333 396.804 193.417C394.243 187.502 398.341 189.73 402.541 190.191C406.741 190.652 404.257 187.399 404.257 187.399C404.257 187.399 424.181 178.333 417.318 162.02C410.736 156.949 402.105 154.9 393.424 157.282C378.647 161.303 370.068 177.053 374.268 192.444C378.468 207.836 390.376 216.108 405.153 212.087C405.23 212.087 404.795 209.91 403.13 207.887C399.724 203.712 398.034 198.488 398.034 198.488V198.462Z" fill="#0580A3"/>
<path d="M434.783 191.984C433.196 191.062 432.043 190.14 431.198 189.218C427.536 185.223 429.738 181.125 427.1 174.595C424.847 169.012 418.572 164.582 416.652 163.352C416.472 163.25 416.267 163.147 416.088 163.045C409.814 174.646 406.792 190.063 406.792 190.063C406.792 190.063 403.77 183.2 398.366 185.479C394.474 187.118 393.219 193.546 396.676 198.975C399.391 203.252 403.386 201.46 403.386 201.46C403.386 201.46 404.743 210.218 409.455 212.036C411.094 212.677 413.809 213.291 416.652 213.855C421.927 214.879 426.947 215.571 426.947 215.571C430.66 215.827 431.813 214.008 432.146 212.421C432.35 211.447 432.222 210.449 431.915 209.527L431.249 207.606C431.249 207.606 431.428 207.657 432.914 206.684C434.604 205.583 432.094 203.124 432.094 203.124C434.374 202.638 435.065 200.999 433.503 199.821C431.941 198.642 432.863 197.055 432.863 197.055C437.498 194.238 434.783 191.984 434.783 191.984V191.984Z" fill="#EE947C"/>
<path d="M417.394 209.68L407.534 239.311L383.333 226.941C387.789 221.23 394.422 203.816 394.345 203.739C396.881 196.517 404.768 201.383 410.607 206.326L417.368 209.68H417.394Z" fill="#EE947C"/>
<path d="M418.008 161.688C418.008 161.688 427.996 168.525 416.497 177.694C409.07 183.61 407.047 190.627 407.047 190.627C407.047 190.627 405.254 185.838 401.515 185.121C397.802 184.403 409.096 159.306 417.982 161.688H418.008Z" fill="#0580A3"/>
<path d="M338.157 262.283C338.157 262.283 313.931 322.466 316.312 348.383C318.694 374.3 341.282 355.886 341.282 355.886L374.498 270.017L338.157 262.308V262.283Z" fill="#CBCBCB"/>
<path d="M338.157 262.283C338.157 262.283 313.931 322.466 316.312 348.383C318.694 374.3 341.282 355.886 341.282 355.886L374.498 270.017L338.157 262.308V262.283Z" fill="#FDE6E1"/>
<path d="M363.306 233.626C354.292 237.672 339.054 236.75 322.254 309.482L352.73 327.204C358.184 312.274 367.762 294.347 390.069 244.894C390.069 244.894 377.187 235.163 363.306 233.626V233.626Z" fill="#CBCBCB"/>
<path d="M363.306 233.626C354.292 237.672 339.054 236.75 322.254 309.482L352.73 327.204C358.184 312.274 367.762 294.347 390.069 244.894C390.069 244.894 377.187 235.163 363.306 233.626V233.626Z" fill="#FDE6E1"/>
<path d="M368.274 353.019C368.274 353.019 340.18 260.516 369.094 235.444C392.962 214.751 411.273 264.101 418.828 259.671C419.263 259.415 437.574 285.23 440.494 290.71C441.108 291.837 441.467 293.066 441.621 294.321C442.056 298.547 441.851 307.945 432.811 314.015L435.218 351.764C435.218 351.764 368.556 353.582 368.274 353.019V353.019Z" fill="#CBCBCB"/>
<path d="M368.274 353.019C368.274 353.019 340.18 260.516 369.094 235.444C392.962 214.751 411.273 264.101 418.828 259.671C419.263 259.415 437.574 285.23 440.494 290.71C441.108 291.837 441.467 293.066 441.621 294.321C442.056 298.547 441.851 307.945 432.811 314.015L435.218 351.764C435.218 351.764 368.556 353.582 368.274 353.019V353.019Z" fill="#FDE6E1"/>
<path d="M383.41 226.941L393.782 242.845C394.883 244.509 396.087 246.097 397.444 247.557C407.611 258.518 425.128 258.595 408.456 236.032L406.536 237.492L383.41 226.941V226.941Z" fill="#FDE6E1"/>
<path d="M420.954 369.895H535.046L535.583 364.85H450.252L420.954 369.895Z" fill="#0580A3"/>
<path d="M463.62 370.048H535.481L556.788 307.381H484.953L463.646 370.048H463.62Z" fill="#0580A3"/>
<path d="M420.954 374.914H535.046L535.583 369.869H420.954V374.914Z" fill="#0580A3"/>
<path d="M412.503 356.219C412.503 356.219 411.325 356.731 417.599 354.401C423.822 352.07 435.449 352.506 435.449 352.506C435.449 352.506 451.43 354.145 452.838 356.45C454.247 358.755 450.866 358.473 450.866 358.473C450.866 358.473 438.164 356.245 437.754 356.911C437.498 357.32 437.933 356.706 437.933 356.706C437.933 356.706 451.737 357.167 455.834 360.65C455.834 360.65 457.653 363.595 453.043 362.596C448.408 361.597 437.78 361.008 437.78 361.008L437.6 360.803C437.6 360.803 456.039 362.366 457.473 365.439C458.908 368.512 452.48 367.488 452.48 367.488C452.48 367.488 442.671 365.541 437.754 365.669L437.139 365.131C437.139 365.131 449.227 368.256 451.199 370.381C453.171 372.481 452.505 373.147 450.712 372.789C448.945 372.43 437.139 369.203 434.886 369.69C433.81 369.92 428.765 371.431 426.895 371.457C424.181 371.508 419.059 370.381 418.086 369.844C416.856 369.152 412.298 367.411 411.658 366.77C411.581 366.694 402.694 366.028 402.438 365.823C401.465 364.952 405.153 358.319 405.101 357.218C405.101 357.218 408.508 356.373 412.503 356.194V356.219Z" fill="#EE947C"/>
<path d="M409.556 355.349C409.556 355.349 360.36 334.477 334.007 333.504C322.893 333.094 318.462 335.117 318.462 335.117C314.979 344.464 317.797 355.63 322.15 360.701C323.2 363.518 325.736 364.978 328.706 365.439L355.11 369.46L410.965 371.79L409.556 355.374V355.349Z" fill="#CBCBCB"/>
<path d="M409.556 355.349C409.556 355.349 360.36 334.477 334.007 333.504C322.893 333.094 318.462 335.117 318.462 335.117C314.979 344.464 317.797 355.63 322.15 360.701C323.2 363.518 325.736 364.978 328.706 365.439L355.11 369.46L410.965 371.79L409.556 355.374V355.349Z" fill="#FDE6E1"/>
</svg>
